<?xml version="1.0" encoding="UTF-8" standalone="no"?>
<!-- Created with Inkscape (http://www.inkscape.org/) -->
<svg
   xmlns:dc="http://purl.org/dc/elements/1.1/"
   xmlns:cc="http://creativecommons.org/ns#"
   xmlns:rdf="http://www.w3.org/1999/02/22-rdf-syntax-ns#"
   xmlns:svg="http://www.w3.org/2000/svg"
   xmlns="http://www.w3.org/2000/svg"
   xmlns:sodipodi="http://sodipodi.sourceforge.net/DTD/sodipodi-0.dtd"
   xmlns:inkscape="http://www.inkscape.org/namespaces/inkscape"
   width="1080"
   height="540"
   id="svg2"
   sodipodi:version="0.32"
   inkscape:version="0.46"
   sodipodi:docname="pie.svg"
   inkscape:output_extension="org.inkscape.output.svg.inkscape"
   version="1.0">
  <defs
     id="defs4">
    <inkscape:perspective
       sodipodi:type="inkscape:persp3d"
       inkscape:vp_x="0 : 526.18109 : 1"
       inkscape:vp_y="0 : 1000 : 0"
       inkscape:vp_z="744.09448 : 526.18109 : 1"
       inkscape:persp3d-origin="372.04724 : 350.78739 : 1"
       id="perspective10" />
  </defs>
  <sodipodi:namedview
     id="base"
     pagecolor="#ffffff"
     bordercolor="#666666"
     borderopacity="1.0"
     gridtolerance="10000"
     guidetolerance="10"
     objecttolerance="10"
     inkscape:pageopacity="0.0"
     inkscape:pageshadow="2"
     inkscape:zoom="0.84444444"
     inkscape:cx="236.32274"
     inkscape:cy="499.04384"
     inkscape:document-units="in"
     inkscape:current-layer="layer3"
     showgrid="false"
     units="in"
     inkscape:snap-guide="true" />
  <metadata
     id="metadata7">
    <rdf:RDF>
      <cc:Work
         rdf:about="">
        <dc:format>image/svg+xml</dc:format>
        <dc:type
           rdf:resource="http://purl.org/dc/dcmitype/StillImage" />
        <dc:creator>
          <cc:Agent>
            <dc:title>HeatherM</dc:title>
          </cc:Agent>
        </dc:creator>
      </cc:Work>
    </rdf:RDF>
  </metadata>
  <g
     inkscape:label="base"
     inkscape:groupmode="layer"
     id="layer1">
    <path
       style="font-size:72px;font-style:normal;font-variant:normal;font-weight:normal;font-stretch:normal;text-align:start;line-height:100%;writing-mode:lr-tb;text-anchor:start;fill:#000000;fill-opacity:1;stroke:none;stroke-width:1px;stroke-linecap:butt;stroke-linejoin:miter;stroke-opacity:1;font-family:GE Holiday Sampler;-inkscape-font-specification:GE Holiday Sampler"
       d="M 205.39747,6.388683 C 184.03358,5.4467834 164.30783,16.948889 143.2774,17.036315 C 115.31769,15.577668 98.590646,21.226937 82.765884,31.436694 C 75.603794,36.609659 68.169619,44.099733 59.016345,47.281264 C 49.823332,50.216571 41.72354,55.413589 34.57247,61.807569 C 32.363421,64.188218 31.46753,67.512749 29.145306,69.761615 C 24.007243,73.450171 18.65735,78.134947 17.938401,84.73294 C 17.376447,91.486604 21.369815,97.439468 22.365394,103.95848 C 22.728272,114.41014 28.858081,122.93827 40.887945,127.85943 C 44.277243,129.26022 48.345469,128.6518 51.428034,130.65458 C 59.524178,141.56121 67.587896,149.40917 76.715609,159.34546 C 79.255989,161.93539 85.04972,164.37893 88.558963,165.18397 C 125.4488,180.07593 164.0151,186.40826 203.92666,186.55018 C 225.34603,186.62635 248.49888,183.31765 269.67806,179.74834 C 286.5212,176.90977 302.15004,170.68479 318.1473,165.27967 C 324.77314,162.89795 330.95632,159.46104 336.9375,155.78125 C 339.85258,149.25865 342.9952,141.70506 347.65724,136.10231 C 352.85333,132.92716 359.24166,131.74185 363.72488,127.28873 C 369.01214,123.33142 366.76595,116.51047 369.44672,111.45709 C 376.42001,103.00459 375.7867,98.81697 374.70526,93.167268 C 375.98348,90.08605 376.92794,86.83994 376.81681,83.443598 C 376.65108,80.749332 376.21414,78.101748 377.17016,75.548098 C 378.13561,68.483902 372.59611,62.897558 366.77605,59.558647 C 363.74023,57.189298 359.80534,56.215571 356,56.3125 C 345.74316,52.70683 336.83156,46.587818 327.44232,41.274112 C 319.47416,34.230293 305.78964,31.914932 300.65645,31.813865 C 292.32436,31.042753 283.67689,30.721856 276.02442,26.93929 C 254.00807,17.365257 229.73283,7.6479133 205.39747,6.388683 z"
       id="path2408"
       inkscape:export-filename="C:\Documents and Settings\Heather\My Documents\Cricut\pie.png"
       inkscape:export-xdpi="125.21"
       inkscape:export-ydpi="125.21" />
  </g>
  <g
     inkscape:groupmode="layer"
     id="layer2"
     inkscape:label="crust">
    <path
       id="path2406"
       style="font-size:72px;font-style:normal;font-variant:normal;font-weight:normal;font-stretch:normal;text-align:start;line-height:100%;writing-mode:lr-tb;text-anchor:start;fill:#d9bb7a;fill-opacity:1;stroke:none;stroke-width:1px;stroke-linecap:butt;stroke-linejoin:miter;stroke-opacity:1;font-family:GE Holiday Sampler;-inkscape-font-specification:GE Holiday Sampler"
       d="M 617.00954,6.4397556 C 628.02734,7.1264736 638.98805,8.872839 649.5609,12.361791 C 658.71393,15.977106 668.4356,18.36577 676.78139,23.693637 C 683.18722,27.181514 690.07355,30.179427 697.4427,30.65841 C 706.37058,32.322625 717.21284,31.77606 724.3595,35.053427 C 730.83041,36.868106 737.22228,41.797422 743.3182,45.293465 C 748.87241,48.174777 754.27785,51.365787 759.83074,54.227013 C 767.80767,58.69422 773.07932,56.041104 778.25145,60.248118 C 779.91738,62.824226 782.63882,64.186352 784.31719,66.628911 C 784.23603,69.108257 781.12691,71.253913 783.37109,73.905336 C 785.43573,77.617691 785.61633,82.908246 782.22498,85.906304 C 779.71476,88.945029 783.64172,91.692631 783.07923,94.799289 C 782.54678,98.08109 779.93949,100.41978 778.62723,103.3801 C 777.21561,110.05415 777.49538,115.51614 771.17444,119.76173 C 765.23863,123.73112 758.40048,125.72958 753.47909,131.02628 C 751.20153,133.59754 747.94039,134.78745 744.85615,135.55564 C 737.60716,135.60579 731.75946,138.94357 725.53909,141.99388 C 719.33603,145.03569 707.30913,144.11987 701.49968,146.02608 C 688.24268,156.57588 670.91735,157.69332 652.53551,157.23119 C 646.77157,156.29277 639.58288,155.68108 633.72631,156.77956 C 627.31464,157.39131 620.91921,158.27278 614.5013,158.7504 C 608.23607,158.761 602.07975,157.33916 595.95652,156.16366 C 590.43826,155.07904 585.22038,152.77002 579.66011,151.90787 C 576.64026,151.2881 573.65267,151.46703 570.62246,152.34706 C 554.66405,156.43728 539.82886,149.51785 525.20256,144.23723 C 519.85812,143.1287 510.79844,144.91365 500.38118,139.32599 C 497.26824,137.6647 494.59169,134.7415 490.82631,134.73976 C 485.18143,133.97137 479.34306,133.41458 474.21448,130.73372 C 467.88322,127.24614 465.49323,120.90453 458.15401,119.12507 C 451.6752,119.45295 446.18836,115.46616 442.42893,110.55539 C 440.03001,105.59393 437.58106,99.50035 438.08768,93.871878 C 430.90557,89.198089 434.44285,71.413097 444.01804,70.539963 C 448.1103,74.784834 449.21228,80.812688 449.25463,86.543994 C 449.70753,89.020778 446.35566,92.660734 449.54023,94.022432 C 452.67962,94.496108 455.3588,96.174158 458.10066,97.736982 C 461.15696,99.47904 468.24878,111.1531 470.58337,109.29338 C 466.7622,102.76978 460.99332,96.428962 454.18714,93.691305 C 452.87296,92.604071 453.05268,91.220706 453.06696,89.826996 C 454.63959,74.603636 446.27242,70.052082 446.05842,67.156021 C 448.75883,65.212753 448.19455,60.928655 451.42557,59.434805 C 456.81709,54.698157 463.20473,51.314693 469.5625,48.076932 C 473.9349,47.276348 477.9253,45.099244 481.71642,42.874629 C 495.03729,32.740628 507.96255,23.46466 524.39008,19.754476 C 537.56056,16.622121 551.02374,17.903496 564.37762,17.25356 C 570.25547,15.875344 574.57148,14.617972 581.95182,15.572325 C 586.67768,17.266251 588.01342,18.044055 590.18804,19.882756 C 588.73093,20.853987 587.3946,20.563504 586.08143,19.909807 C 581.25334,16.913093 575.13778,15.38846 569.90946,18.226799 C 567.04315,20.648668 571.22009,21.528199 573.18946,21.249073 C 577.25762,20.672481 581.63965,20.718736 585.55484,22.114859 C 588.1939,23.055923 594.69943,21.226761 590.83948,17.910258 C 588.04087,16.337229 585.10972,14.56034 581.89339,14.11961 C 580.77989,14.073019 577.01051,13.990584 579.97805,13.026608 C 591.85734,9.287146 604.55165,5.6632808 617.00954,6.4397556 z M 637.375,17.733182 C 634.84883,18.157627 635.58753,23.985528 637.63198,20.478859 C 639.32897,17.918971 642.96083,18.046381 645.63171,17.21375 C 648.13871,16.770764 653.08091,16.295259 653.58454,19.345758 C 649.88929,18.541649 646.15076,18.195067 642.60562,19.517791 C 642.00988,20.004973 641.96923,20.799201 642.40634,21.291481 C 646.1038,22.169152 650.7134,23.468813 654.48671,21.941908 C 657.33176,19.153435 653.7534,15.786623 650.72786,15.362651 C 646.29475,14.741435 640.57165,16.543968 637.375,17.733182 z M 681.5625,35.701932 C 677.75619,36.573325 684.0441,38.99649 685.69575,39.4507 C 689.8343,40.588817 693.97793,42.356208 697.1717,45.201791 C 698.61605,46.488671 703.29842,46.997368 700.88662,44.169497 C 698.13844,41.131187 695.14232,39.505741 689.96875,39.014432 C 687.21052,38.853746 684.07477,37.030503 687.42879,37.31506 C 693.2886,37.655398 703.78398,36.770862 704.54606,44.857983 C 709.81302,34.98316 687.56955,34.326713 681.5625,35.701932 z M 537.28125,36.608182 C 527.50125,38.560979 510.58228,40.718951 506.5187,46.423572 C 505.22923,48.233777 507.33089,52.473351 508.94146,51.30067 C 506.55163,48.55178 509.02606,45.256301 512.1724,44.354828 C 519.05861,42.381829 525.84499,39.855468 532.90854,38.573169 C 533.99403,38.478077 534.049,38.766036 533.66411,39.216047 C 530.42293,43.347411 525.52912,42.553199 521.00944,44.07496 C 517.96065,45.10148 514.14936,46.89822 513.45645,50.208962 C 513.08349,51.990941 514.58167,52.150158 515.87241,51.546911 C 522.30134,48.542261 529.97694,45.860545 535.00523,40.566882 C 536.17407,39.361188 537.19456,38.274184 537.28125,36.608182 z M 593.375,54.889432 C 587.96839,58.59855 582.40718,63.554921 579.40507,69.508269 C 578.27018,71.758814 579.92161,77.686892 583.15074,76.71737 C 579.51356,73.238436 581.13215,68.45844 584.2928,65.391853 C 586.49872,62.938052 588.67286,60.467829 591.36354,58.539097 C 593.29763,57.974435 593.35247,60.09794 592.50419,61.608347 C 589.51959,64.175626 587.61705,67.142542 587.06248,71.267553 C 586.76784,72.560674 587.66699,74.53195 588.71379,74.794805 C 594.47973,71.248595 594.42038,61.245979 594.49697,54.958219 C 594.14606,54.797511 593.74322,54.853208 593.375,54.889432 z M 638.28125,56.233182 C 640.17493,60.948602 639.9019,66.347024 642.69667,70.716022 C 643.65976,72.357362 646.73474,76.224172 648.39183,73.992724 C 648.28025,71.244569 648.29144,68.172688 646.31482,65.978083 C 644.9454,63.939755 641.43208,64.385657 641.27149,61.415609 C 640.87503,59.836464 640.42392,57.735808 642.56112,59.3765 C 645.57356,60.982929 647.8968,63.571255 650.33559,65.903157 C 652.58964,67.957545 653.53937,70.538581 652.50496,73.430333 C 655.31949,74.601197 654.45305,68.972684 653.27425,67.481891 C 651.04278,64.190051 647.90577,61.559652 644.76426,59.150646 C 642.78035,57.950605 640.73746,56.084923 638.28125,56.233182 z M 772.8125,65.608182 C 765.08153,73.19093 767.47315,84.330477 766.9969,83.900113 C 763.01273,87.385356 757.9332,92.072493 753.93189,95.555767 C 750.85198,98.24168 748.75271,101.78626 746.64446,105.22703 C 740.63693,109.55466 735.25528,110.9475 726.98374,119.1401 C 724.11157,122.07216 719.1095,121.31862 716.5809,121.66684 C 708.34539,121.65409 701.3103,124.25382 694.21875,128.20193 C 694.36608,129.51857 695.01684,129.62097 695.8494,129.24668 C 705.50349,124.3855 715.52055,122.0341 725.92147,123.8525 C 732.46322,116.72504 739.69595,110.98604 749.79616,107.37619 C 750.41488,103.98438 758.02707,93.292982 767.73357,88.263227 C 770.35402,86.905349 770.5668,83.914675 769.90124,80.120441 C 769.11666,75.135811 772.55684,69.826843 772.8125,65.608182 z M 490.71875,115.20193 C 491.60283,117.79899 495.37605,116.10781 497.59078,116.48702 C 501.72743,117.1953 506.29346,117.059 510.10201,119.07127 C 513.38735,121.62659 519.1903,126.15237 522.81787,128.28071 C 532.20163,126.41247 535.87834,130.2247 543.7745,132.92702 C 545.50406,133.6177 547.18847,134.92272 548.59986,135.00745 C 552.91307,132.58486 556.50609,131.569 561.57804,132.53804 C 564.83984,133.58263 568.26833,134.90884 571.73934,134.35337 C 573.33734,132.92136 568.83076,133.83342 568.01308,133.15603 C 559.82053,129.10144 554.41176,130.18423 549.09375,132.13943 C 541.54826,128.52386 533.40887,126.27494 525.16936,124.92673 C 520.93022,124.84414 519.17894,121.95788 516.11112,119.85075 C 507.69464,113.43424 499.14145,114.54148 490.71875,115.20193 z M 590.9389,132.86341 C 588.81912,133.2813 583.77768,135.43727 587.58229,136.12085 C 595.48917,133.1084 603.99021,132.07759 612.41923,132.50038 C 620.34577,133.06001 629.28798,134.6584 634.14811,138.53239 C 640.17821,136.40078 646.81139,135.51654 653.27021,134.37896 C 657.40116,133.55213 661.67533,133.28516 665.79889,134.32907 C 668.56808,134.69265 671.26961,136.15226 674.04047,135.98591 C 671.3324,132.75046 662.21949,131.70592 657.35482,131.97674 C 647.74729,132.00416 639.1258,135.35793 635.11364,135.86272 C 622.20164,128.55172 604.9433,130.10258 590.9389,132.86341 z"
       sodipodi:nodetypes="ccccccccccccccccscccccccccccccccccscccccccccccccsscccccccccccsccssccccccscsccssscccscccccccccccccccccccccccccccccscccsccccccccccccccccccccc"
       inkscape:export-filename="C:\Documents and Settings\Heather\My Documents\Cricut\pie.png"
       inkscape:export-xdpi="125.21"
       inkscape:export-ydpi="125.21" />
  </g>
  <g
     inkscape:groupmode="layer"
     id="layer3"
     inkscape:label="plate">
    <path
       style="font-size:72px;font-style:normal;font-variant:normal;font-weight:normal;font-stretch:normal;text-align:start;line-height:100%;writing-mode:lr-tb;text-anchor:start;fill:#cccccf;fill-opacity:1;stroke:none;stroke-width:1px;stroke-linecap:butt;stroke-linejoin:miter;stroke-opacity:1;font-family:GE Holiday Sampler;-inkscape-font-specification:GE Holiday Sampler"
       d="M 474.6875,243.46875 C 481.83839,249.02434 485.39934,245.39586 493.2347,247.72695 C 496.01989,249.12938 501.70025,251.72158 504.25878,253.49165 C 509.76138,256.0445 518.52603,257.142 524.48379,256.47788 C 541.72945,262.52518 556.16545,269.26937 574.63544,265.03437 C 586.32021,262.60108 601.56764,272.21084 620.71705,271.99035 C 632.09212,271.85937 635.95669,268.67196 647.41728,269.4716 C 661.51083,272.37088 674.83442,270.8473 688.61948,267.17876 C 696.36521,264.88335 699.66093,261.20932 707.26821,258.79243 C 714.68044,259.09608 725.33735,257.875 731.28686,253.06043 C 735.43878,250.4527 744.23332,246.48208 749.2632,246.82305 C 748.37523,249.10153 746.84218,251.30454 745.70032,253.55106 C 744.14976,255.78255 743.42639,259.02893 740.51663,259.82422 C 707.46781,275.30942 670.94145,282.37778 634.66313,284.65486 C 599.28546,287.49129 562.50187,283.962 532.31149,274.11098 C 515.63423,269.92738 498.29042,267.08758 485.88225,254.68316 C 481.70775,251.35577 478.16284,247.51366 474.6875,243.46875 z"
       id="text2379"
       sodipodi:nodetypes="cccccsccccccccccc"
       inkscape:export-filename="C:\Documents and Settings\Heather\My Documents\Cricut\pie.png"
       inkscape:export-xdpi="125.21"
       inkscape:export-ydpi="125.21" />
  </g>
</svg>
